<svg width="58" height="50" viewBox="0 0 58 50" fill="none" xmlns="http://www.w3.org/2000/svg">
<path d="M14.5209 0.27523C13.2824 2.20183 11.5393 5.43578 11.6769 5.57339C11.7686 5.66514 18.1448 5.77982 25.8283 5.80275C38.5806 5.84862 39.7962 5.87156 39.865 6.2156C39.9108 6.44495 39.498 7.29358 38.9934 8.1422C38.4659 9.01376 37.9384 9.93119 37.8237 10.1835C37.6861 10.4587 37.4567 10.9174 37.2732 11.2156C37.1127 11.5367 37.0209 11.8807 37.0668 11.9725C37.2503 12.2706 50.2319 12.1789 50.2319 11.8807C50.2319 11.7431 49.9338 11.1239 49.5439 10.5046C49.154 9.90826 48.8558 9.31193 48.8558 9.19725C48.8558 9.1055 48.5576 8.57798 48.1677 8.07339C47.8008 7.54587 47.4797 7.04128 47.4797 6.97248C47.4797 6.88073 47.0439 6.07798 46.4934 5.18349C45.943 4.28899 45.4384 3.3945 45.3466 3.21101C45.2549 3.02752 44.9797 2.54587 44.7274 2.1789C44.4751 1.78899 44.154 1.23853 44.0393 0.917431C43.9017 0.619266 43.6494 0.275229 43.5118 0.183486C43.3512 0.0917429 36.8145 0 28.9705 0C17.8008 0 14.6586 0.0688075 14.5209 0.27523ZM7.43378 12.6835C7.25029 12.7982 6.998 13.0963 6.86039 13.3716C6.74571 13.6468 6.56222 14.0367 6.42461 14.2202C5.7824 15.2064 4.13103 18.0734 4.13103 18.211C4.13103 18.3028 3.94754 18.6468 3.69525 18.9908C3.46589 19.3349 2.68607 20.6422 1.95213 21.9037C1.21818 23.1651 0.53011 24.2202 0.415431 24.2661C0.0943298 24.4037 0.209009 25.0917 0.736532 25.9174C1.69983 27.4312 1.81451 27.6376 2.04387 28.1422C2.45672 29.0596 3.44295 30.5046 3.64938 30.5046C3.76406 30.5046 4.10809 30 4.42919 29.4037C5.55305 27.2706 8.25947 22.5688 8.97048 21.5138C9.22277 21.1697 9.40626 20.8257 9.40626 20.7569C9.40626 20.6881 10.1861 19.3349 11.1264 17.7523C12.0668 16.1697 12.8466 14.8165 12.8466 14.7248C12.8466 14.656 13.1219 14.1972 13.443 13.7156C13.787 13.2339 13.9934 12.7523 13.9017 12.6605C13.6494 12.4312 7.84662 12.4541 7.43378 12.6835ZM22.7549 12.6147C21.7228 12.7294 21.7228 12.7294 20.6219 14.9083C20.3466 15.4817 19.7732 16.445 19.3833 17.0872C18.9705 17.7064 18.3053 18.8532 17.8925 19.6101C17.4797 20.367 17.0209 21.1468 16.8833 21.3303C16.7457 21.5138 16.4246 22.0413 16.1723 22.4771C15.3696 23.922 14.7044 25.0917 14.2228 25.9174C13.3971 27.3165 12.8008 28.3486 10.1402 32.9817L7.52552 37.5L7.93837 38.3028C8.16772 38.7385 8.78699 39.8165 9.31451 40.711C9.8191 41.5826 10.3237 42.5459 10.4154 42.8211C10.5072 43.1193 10.6677 43.3486 10.7595 43.3486C10.8512 43.3486 11.1494 43.7844 11.4475 44.3119C11.7228 44.8624 12.1586 45.5963 12.4108 45.9862C12.6402 46.3532 12.9842 46.9725 13.1677 47.3624C13.3512 47.7294 13.8099 48.4862 14.1998 49.0367L14.9108 50H43.3741L43.7641 49.3119C43.9705 48.945 44.2228 48.6239 44.3375 48.6239C44.4292 48.6239 44.498 48.5092 44.498 48.3716C44.498 48.2339 44.842 47.5229 45.2778 46.8119C45.6907 46.1009 46.3329 45 46.6769 44.3807C47.0209 43.7385 48.0072 42.0413 48.8558 40.5963C54.0852 31.6743 53.9934 31.8578 53.6494 31.6284C53.4659 31.5138 53.0301 31.4679 52.6631 31.5367C52.2962 31.6055 50.943 31.6514 49.6586 31.6514H47.2962L45.8741 34.1055C45.0943 35.4817 43.5806 38.0505 42.5255 39.8394C41.4705 41.6284 40.5989 43.1881 40.5989 43.3257C40.5989 44.0138 39.5439 44.0826 28.8329 44.0596C22.8925 44.0367 18.0301 44.0138 18.0072 43.9679C17.4108 43.211 14.4521 37.867 14.4521 37.5917C14.4521 37.3624 14.9108 36.3991 15.4842 35.4817C16.0576 34.5413 16.5163 33.6927 16.5163 33.6239C16.5163 33.5321 16.7686 33.1193 17.0897 32.7064C17.4108 32.2936 17.6631 31.8807 17.6631 31.789C17.6631 31.6972 18.1907 30.7569 18.8099 29.6789C19.4521 28.6009 19.9567 27.7064 19.9567 27.6606C19.9567 27.5688 22.5714 23.0963 23.5118 21.6055C23.8558 21.078 24.3833 20.1606 24.6815 19.5642C25.0026 18.9679 25.7824 17.6376 26.4017 16.5826C27.0209 15.5275 27.5255 14.6101 27.5255 14.5183C27.5255 14.4495 27.8008 14.0367 28.1219 13.6009C28.443 13.1651 28.6494 12.7523 28.5806 12.6605C28.3971 12.4771 24.154 12.4541 22.7549 12.6147Z" fill="white"/>
<path d="M32.5943 19.4724C32.2732 19.8394 31.7457 20.6421 31.4246 21.2384C30.6677 22.7293 29.9796 23.9678 24.2915 33.7614C23.787 34.5871 23.3971 35.3669 23.3971 35.4586C23.3971 35.5504 23.1677 35.8715 22.9154 36.1467C22.2961 36.8118 22.4796 37.4999 23.2365 37.2935C23.5117 37.2247 26.5851 37.1559 30.0714 37.1559H36.3787L36.8833 36.1696C37.5255 34.9311 38.3283 33.532 38.8558 32.7522C39.5668 31.6742 39.3604 31.5825 35.9888 31.5595C32.9842 31.5366 32.9154 31.5366 32.8466 31.032C32.8007 30.7109 33.2365 29.7247 33.9705 28.5091C34.6356 27.4082 35.3695 26.1238 35.5989 25.6421L36.0117 24.7706H46.7916C53.5576 24.7706 57.5714 24.6788 57.5714 24.5412C57.5714 24.2889 54.9108 19.7706 54.4063 19.1972C54.0852 18.8302 53.3283 18.8073 43.6264 18.8073L33.1906 18.8302L32.5943 19.4724Z" fill="white"/>
</svg>
