<svg width="98" height="101" viewBox="0 0 98 101" fill="none" xmlns="http://www.w3.org/2000/svg">
<path d="M0.87915 0.5H97.1211V100.5H0.87915V0.5Z" fill="#F7DF1E"/>
<path d="M26.1835 84.067L33.5486 79.4358C34.9695 82.0534 36.262 84.2682 39.3624 84.2682C42.3343 84.2682 44.2079 83.0602 44.2079 78.3618V46.4094H53.2522V78.4947C53.2522 88.228 47.7613 92.6583 39.7501 92.6583C32.515 92.6583 28.3152 88.7648 26.1833 84.0662" fill="#1F2626"/>
<path d="M58.1667 83.0604L65.5309 78.63C67.4695 81.9196 69.9891 84.3359 74.4465 84.3359C78.1939 84.3359 80.5837 82.3891 80.5837 79.704C80.5837 76.4819 78.1289 75.3407 73.9941 73.4618L71.7337 72.4542C65.2083 69.5683 60.8797 65.9435 60.8797 58.291C60.8797 51.2428 66.0479 45.8724 74.1237 45.8724C79.8734 45.8724 84.008 47.9535 86.9795 53.3908L79.9376 58.0894C78.387 55.2032 76.7078 54.0623 74.1238 54.0623C71.475 54.0623 69.7952 55.8075 69.7952 58.0894C69.7952 60.9088 71.475 62.0502 75.3508 63.7956L77.6118 64.8024C85.2997 68.2261 89.6283 71.7162 89.6283 79.5697C89.6283 88.0281 83.2326 92.6594 74.6405 92.6594C66.2421 92.6594 60.8152 88.4978 58.1669 83.0604" fill="#1F2626"/>
</svg>
