<svg width="18" height="19" viewBox="0 0 18 19" fill="none" xmlns="http://www.w3.org/2000/svg">
<path d="M14.657 12.328L13.243 10.914L14.657 9.5C15.0285 9.12856 15.3231 8.68759 15.5241 8.20228C15.7252 7.71696 15.8286 7.19681 15.8286 6.6715C15.8286 6.1462 15.7252 5.62605 15.5241 5.14073C15.3231 4.65542 15.0285 4.21445 14.657 3.843C14.2856 3.47156 13.8446 3.17691 13.3593 2.97589C12.874 2.77487 12.3538 2.6714 11.8285 2.6714C11.3032 2.6714 10.7831 2.77487 10.2977 2.97589C9.81242 3.17691 9.37146 3.47156 9.00001 3.843L7.58601 5.257L6.17201 3.843L7.58601 2.429C8.71432 1.31892 10.2356 0.699659 11.8184 0.706104C13.4012 0.71255 14.9174 1.34418 16.0366 2.46341C17.1558 3.58265 17.7875 5.0988 17.7939 6.68162C17.8004 8.26444 17.1811 9.78569 16.071 10.914L14.657 12.328ZM11.828 15.157L10.414 16.571C9.85853 17.1356 9.19676 17.5846 8.46688 17.8922C7.73699 18.1998 6.95343 18.3598 6.16139 18.363C5.36936 18.3662 4.58452 18.2126 3.85215 17.911C3.11979 17.6094 2.45438 17.1658 1.89432 16.6057C1.33426 16.0456 0.890634 15.3802 0.589022 14.6479C0.287411 13.9155 0.133788 13.1307 0.137013 12.3386C0.140238 11.5466 0.300248 10.763 0.607813 10.0331C0.915378 9.30325 1.36441 8.64148 1.92901 8.086L3.34301 6.672L4.75701 8.086L3.34301 9.5C2.97157 9.87145 2.67692 10.3124 2.4759 10.7977C2.27488 11.283 2.17141 11.8032 2.17141 12.3285C2.17141 12.8538 2.27488 13.374 2.4759 13.8593C2.67692 14.3446 2.97157 14.7856 3.34301 15.157C3.71446 15.5284 4.15543 15.8231 4.64074 16.0241C5.12605 16.2251 5.64621 16.3286 6.17151 16.3286C6.69681 16.3286 7.21697 16.2251 7.70229 16.0241C8.1876 15.8231 8.62857 15.5284 9.00001 15.157L10.414 13.743L11.828 15.157ZM11.828 5.257L13.243 6.672L6.17201 13.742L4.75701 12.328L11.828 5.258V5.257Z" fill="white"/>
</svg>
