<svg width="43" height="101" viewBox="0 0 43 101" fill="none" xmlns="http://www.w3.org/2000/svg">
<path d="M42.1173 40.2953C37.1004 17.0575 26.6303 10.8696 23.9735 6.49552C22.5295 4.11609 21.0572 0.5 21.0572 0.5C20.9132 2.5611 20.658 3.86647 18.9828 5.43291C15.628 8.57266 1.3712 20.7698 0.173682 47.1748C-0.943129 71.7936 17.4057 86.9771 19.8444 88.5458C21.7072 89.5076 23.9888 88.5641 25.0794 87.6824C33.9223 81.3067 46.0196 64.3072 42.1064 40.2953" fill="#10AA50"/>
<path d="M21.8171 75.4325C21.3569 81.5288 21.0253 85.0762 19.854 88.5526C19.854 88.5526 20.6262 94.3534 21.1628 100.5H23.0757C23.5324 96.171 24.2294 91.8735 25.1632 87.6297C22.6853 86.3541 21.9109 80.7799 21.8171 75.4325Z" fill="#B8C4C2"/>
<path d="M25.1617 87.6342C22.6576 86.4204 21.9334 80.7341 21.8222 75.4324C22.4392 66.6917 22.6175 57.9229 22.3566 49.1625C22.2257 44.5663 22.422 6.58469 21.2791 1.02429C21.7415 2.1121 22.8583 4.66787 23.9751 6.49309C26.6428 10.8695 37.1042 17.0574 42.1167 40.2975C46.0234 64.2475 33.998 81.2173 25.1617 87.6342Z" fill="#12924F"/>
</svg>
