<svg width="98" height="87" viewBox="0 0 98 87" fill="none" xmlns="http://www.w3.org/2000/svg">
<path d="M49.0001 52.1059C53.801 52.1059 57.6928 48.214 57.6928 43.4132C57.6928 38.6123 53.801 34.7205 49.0001 34.7205C44.1992 34.7205 40.3074 38.6123 40.3074 43.4132C40.3074 48.214 44.1992 52.1059 49.0001 52.1059Z" fill="#F5DE19"/>
<path d="M49 63.3434C38.5519 63.5962 28.1298 62.1878 18.1235 59.1709C13.5011 57.7056 9.18993 55.3974 5.40778 52.3628C3.96455 51.3261 2.76266 49.9895 1.88459 48.4446C1.00653 46.8997 0.473061 45.1832 0.320801 43.4128C0.320801 37.6651 6.63519 32.0322 17.2125 28.3465C27.4864 25.0807 38.2208 23.4979 49 23.6594C59.6354 23.5108 70.2261 25.065 80.3703 28.2631C84.822 29.6823 88.987 31.879 92.6723 34.7513C94.0908 35.7397 95.2747 37.0279 96.14 38.5247C97.0052 40.0215 97.5308 41.6902 97.6793 43.4128C97.6793 49.3864 90.6208 55.44 79.2507 59.2022C69.4381 62.1208 59.236 63.5174 49 63.3434ZM49 27.818C38.6874 27.6802 28.4186 29.1849 18.579 32.2756C8.84315 35.6728 4.4794 40.3182 4.4794 43.4023C4.4794 46.6291 9.16999 51.7021 19.4691 55.2244C29.0418 58.096 39.009 59.4327 49 59.1848C58.7929 59.36 68.5549 58.0349 77.9468 55.2557C88.6389 51.7126 93.5068 46.6325 93.5068 43.4128C93.3313 42.3078 92.9287 41.2513 92.3242 40.3099C91.7197 39.3685 90.9266 38.5626 89.9949 37.9433C86.6978 35.3951 82.9771 33.4483 79.0038 32.1922C69.2994 29.1454 59.1705 27.6687 49 27.818Z" fill="#F5DE19"/>
<path d="M29.2489 86.7685C27.6268 86.8057 26.0239 86.4121 24.6035 85.628C19.6243 82.7559 17.8997 74.4735 19.9894 63.4685C22.2935 52.9367 26.2857 42.8469 31.8115 33.5899C36.9949 24.3029 43.6308 15.9051 51.4675 8.71477C54.9208 5.56698 58.9045 3.05596 63.234 1.29814C64.7999 0.564261 66.5081 0.183838 68.2375 0.183838C69.9669 0.183838 71.6751 0.564261 73.241 1.29814C78.4184 4.28148 80.1326 13.4193 77.7161 25.1475C75.3408 35.1078 71.4523 44.6451 66.186 53.4267C61.185 62.6039 54.7581 70.9286 47.1455 78.0896C43.5668 81.3608 39.4136 83.9414 34.8957 85.701C33.087 86.3723 31.1779 86.7332 29.2489 86.7685ZM35.4138 35.6553C30.1429 44.5195 26.3165 54.1662 24.0785 64.2334C22.1556 74.3692 24.002 80.4645 26.6863 82.0153C29.468 83.6252 36.2205 82.0987 44.4194 74.9359C51.6867 68.0755 57.821 60.1068 62.5942 51.3265C67.6392 42.9311 71.3693 33.8129 73.6548 24.2886C75.9288 13.2489 73.9643 6.48943 71.1757 4.88302C70.1305 4.48255 69.0136 4.30328 67.8956 4.35655C66.7776 4.40981 65.6828 4.69445 64.6804 5.19248C60.8267 6.78271 57.2837 9.04033 54.2144 11.8615C46.7271 18.7489 40.3884 26.7885 35.4381 35.6761L35.4138 35.6553Z" fill="#F5DE19"/>
<path d="M68.7362 86.8136C64.0247 86.8136 58.0407 83.9624 51.8097 78.6042C43.8357 71.3485 37.0877 62.8509 31.8269 53.4405C26.3704 44.3109 22.4098 34.3671 20.0952 23.9861C19.0914 19.4189 18.9054 14.7099 19.5458 10.0777C19.6939 8.35939 20.2171 6.69444 21.0786 5.20031C21.9402 3.70617 23.119 2.41922 24.532 1.43023C29.7024 -1.56355 38.4751 1.51368 47.4286 9.4623C54.8716 16.4936 61.1923 24.6249 66.1701 33.5724C71.6232 42.4889 75.6254 52.215 78.027 62.3871C79.074 67.1218 79.2355 72.0095 78.5033 76.8031C78.3291 78.5709 77.7747 80.2801 76.8781 81.8135C75.9814 83.3469 74.7637 84.6683 73.3086 85.687C71.9113 86.4615 70.3333 86.8503 68.7362 86.8136ZM35.4257 51.3473C40.4724 60.3406 46.9185 68.4732 54.5219 75.4401C62.3418 82.1682 68.5449 83.6147 71.2119 82.0465C73.9935 80.4297 76.045 73.8302 73.931 63.152C71.6148 53.4403 67.7761 44.1564 62.5574 35.6448C57.8071 27.0811 51.7741 19.295 44.6678 12.5569C36.2393 5.07422 29.4034 3.40174 26.6182 5.01511C25.7501 5.72054 25.0378 6.59831 24.5261 7.59297C24.0144 8.58764 23.7145 9.6776 23.6453 10.794C23.0925 14.9251 23.2726 19.1213 24.1773 23.1898C26.4037 33.1174 30.2022 42.6254 35.4292 51.3543L35.4257 51.3473Z" fill="#F5DE19"/>
</svg>
