<svg width="100" height="95" viewBox="0 0 100 95" fill="none" xmlns="http://www.w3.org/2000/svg">
<path d="M0 47.3355C0 55.2319 7.37432 62.6034 19.0006 66.7585C16.6789 78.9795 18.5845 88.8296 24.9493 92.6677C31.4916 96.6126 41.2382 93.8819 50.4889 85.4269C59.5063 93.5406 68.6199 96.7337 74.9788 92.8847C81.5148 88.9284 83.5029 78.4102 81.117 65.8077C93.2264 61.6215 100 55.3358 100 47.3355C100 39.6222 92.612 32.9492 81.1426 28.8208C83.711 15.6974 81.5347 6.08637 74.9064 2.0897C68.5161 -1.76334 59.2966 1.59498 50.1466 9.92118C40.6276 1.08357 31.4991 -1.61466 24.8773 2.39366C18.4932 6.25766 16.6714 16.2867 19.0006 28.734C7.7669 32.8294 0 39.6531 0 47.3355Z" fill="white"/>
<path d="M78.7136 32.9204C77.7923 32.5888 76.8377 32.2751 75.8548 31.9784C76.0163 31.289 76.1646 30.6085 76.2964 29.9396C78.4605 18.9557 77.0456 10.107 72.2139 7.19359C67.5809 4.40005 60.004 7.31276 52.3518 14.276C51.6159 14.9456 50.878 15.6545 50.1404 16.3975C49.6489 15.9059 49.1583 15.4309 48.6688 14.9765C40.649 7.53094 32.6104 4.39327 27.7835 7.31507C23.1549 10.1167 21.7842 18.4353 23.7322 28.8449C23.9204 29.8503 24.1402 30.8771 24.3889 31.921C23.2512 32.2587 22.1529 32.6187 21.102 33.0017C11.6996 36.4293 5.69482 41.8012 5.69482 47.3732C5.69482 53.128 12.141 58.9002 21.9343 62.4002C22.7071 62.6764 23.509 62.9376 24.3355 63.1855C24.0672 64.3146 23.8339 65.421 23.638 66.5002C21.7806 76.729 23.2311 84.8512 27.8473 87.6351C32.6155 90.5101 40.6177 87.5549 48.4099 80.433C49.0258 79.87 49.6439 79.273 50.2631 78.6472C51.0656 79.4553 51.8669 80.2201 52.664 80.9375C60.2116 87.7287 67.6661 90.471 72.2781 87.6792C77.0415 84.796 78.5895 76.0709 76.5797 65.4554C76.4262 64.6447 76.2476 63.8164 76.047 62.9734C76.6089 62.7997 77.1606 62.6204 77.6986 62.4339C87.8796 58.9068 94.5038 53.2049 94.5038 47.3732C94.5038 41.781 88.3054 36.3729 78.7136 32.9204Z" fill="#53C1DE"/>
<path d="M76.5044 58.6688C76.0188 58.8369 75.5205 58.9994 75.0128 59.1569C73.8888 55.4364 72.3719 51.4802 70.5156 47.3928C72.287 43.4027 73.7453 39.4971 74.8378 35.8008C75.7463 36.0757 76.628 36.3656 77.4777 36.6715C85.6959 39.6297 90.7089 44.0034 90.7089 47.3735C90.7089 50.9632 85.295 55.6232 76.5044 58.6688ZM72.8569 66.2261C73.7456 70.9201 73.8726 75.164 73.2839 78.4817C72.7549 81.4629 71.6912 83.4504 70.376 84.2465C67.5772 85.9404 61.592 83.7385 55.1372 77.9306C54.3972 77.2649 53.6519 76.554 52.9042 75.8016C55.4066 72.9399 57.9075 69.6132 60.3484 65.9185C64.6417 65.5201 68.6978 64.8689 72.3762 63.9798C72.5573 64.7439 72.7183 65.4934 72.8569 66.2261ZM35.9708 83.9538C33.2364 84.9635 31.0585 84.9924 29.742 84.1987C26.9407 82.5093 25.7761 75.988 27.3647 67.2403C27.5466 66.2385 27.7632 65.2094 28.0128 64.1575C31.6508 64.9987 35.6772 65.6039 39.9808 65.9687C42.4381 69.5841 45.0113 72.9072 47.6044 75.8169C47.0379 76.3888 46.4736 76.9333 45.9124 77.4464C42.4667 80.5956 39.0138 82.83 35.9708 83.9538ZM23.1603 58.6468C18.8298 57.0992 15.2536 55.0878 12.8023 52.8929C10.5996 50.9206 9.48755 48.9624 9.48755 47.3735C9.48755 43.9922 14.3088 39.6793 22.3498 36.7479C23.3254 36.3922 24.3468 36.057 25.4067 35.7421C26.518 39.5219 27.9758 43.4738 29.7351 47.47C27.953 51.5255 26.4745 55.5404 25.3523 59.3645C24.5967 59.1374 23.8647 58.8984 23.1603 58.6468ZM27.4545 28.0833C25.7855 19.1647 26.8939 12.4368 29.6832 10.7486C32.6543 8.95005 39.2242 11.5143 46.1487 17.9432C46.5913 18.3541 47.0357 18.7842 47.4813 19.2292C44.901 22.1262 42.3513 25.4243 39.9158 29.0184C35.7391 29.4232 31.7409 30.0734 28.065 30.9441C27.8339 29.9721 27.6291 29.017 27.4545 28.0833ZM65.7626 37.974C64.8839 36.3869 63.9817 34.8373 63.062 33.3301C65.8956 33.7046 68.6104 34.2018 71.1599 34.8102C70.3945 37.3752 69.4405 40.057 68.3175 42.8062C67.5119 41.2071 66.6599 39.5947 65.7626 37.974ZM50.1407 22.0642C51.8906 24.0465 53.6431 26.2597 55.3667 28.661C53.6298 28.5752 51.8713 28.5306 50.0983 28.5306C48.342 28.5306 46.5965 28.5742 44.8703 28.6585C46.5957 26.2795 48.3634 24.0693 50.1407 22.0642ZM34.4186 38.0015C33.5408 39.593 32.7046 41.1966 31.9117 42.8032C30.8068 40.0636 29.8617 37.3696 29.0896 34.7683C31.6235 34.1754 34.3255 33.6906 37.1411 33.3231C36.2084 34.8443 35.2988 36.4053 34.4186 38.0011V38.0015ZM37.2221 61.7068C34.3132 61.3674 31.5705 60.9076 29.0373 60.3311C29.8217 57.6833 30.7877 54.9318 31.9159 52.1331C32.7109 53.7386 33.5505 55.3428 34.4336 56.9379H34.4338C35.3334 58.5628 36.2655 60.1546 37.2221 61.7068ZM50.2456 72.9624C48.4475 70.9338 46.6539 68.6899 44.9022 66.2762C46.6027 66.3459 48.3363 66.3816 50.0983 66.3816C51.9085 66.3816 53.6979 66.339 55.4592 66.257C53.7298 68.7142 51.9837 70.9616 50.2456 72.9624ZM68.3537 51.9905C69.5407 54.8194 70.5414 57.5566 71.3359 60.1592C68.7609 60.7734 65.9808 61.2681 63.0516 61.6357C63.9735 60.1081 64.8836 58.5319 65.7778 56.9106C66.6825 55.2703 67.5415 53.6275 68.3537 51.9905ZM62.4915 54.9288C61.1033 57.4456 59.678 59.8483 58.2311 62.1162C55.5958 62.3132 52.8732 62.4147 50.0983 62.4147C47.3346 62.4147 44.6463 62.325 42.0576 62.1493C40.5524 59.8516 39.0962 57.4418 37.7168 54.9505H37.7171C36.3413 52.4658 35.0751 49.9602 33.9278 47.4687C35.0748 44.9713 36.3377 42.4629 37.7056 39.9828L37.7052 39.9833C39.0767 37.4965 40.5201 35.0985 42.0115 32.8152C44.6526 32.6064 47.361 32.4975 50.0981 32.4975H50.0983C52.8478 32.4975 55.5596 32.6073 58.2 32.8179C59.6685 35.0844 61.1022 37.4747 62.479 39.9618C63.8715 42.4768 65.1507 44.9685 66.3075 47.4123C65.1542 49.8981 63.8779 52.4149 62.4915 54.9288ZM70.3178 10.6305C73.2918 12.4238 74.4483 19.6558 72.5798 29.1392C72.4606 29.7443 72.3264 30.3607 72.1806 30.9853C68.4961 30.0964 64.4952 29.4349 60.3062 29.024C57.866 25.3905 55.3372 22.0872 52.7989 19.2273C53.4813 18.5409 54.1628 17.8864 54.8414 17.2687C61.3979 11.3026 67.5258 8.94708 70.3178 10.6305Z" fill="white"/>
<path d="M50.0985 39.0813C54.4783 39.0813 58.0289 42.7937 58.0289 47.3733C58.0289 51.9528 54.4783 55.6653 50.0985 55.6653C45.7188 55.6653 42.1682 51.9528 42.1682 47.3733C42.1682 42.7937 45.7188 39.0813 50.0985 39.0813Z" fill="#53C1DE"/>
</svg>
